<?xml version="1.0" encoding="UTF-8" standalone="no"?>
<svg xmlns="http://www.w3.org/2000/svg" width="300" height="300" viewBox="0 0 300 300">
  <g transform="translate(0,0)">
    <!-- Losango base -->
    <g transform="rotate(45, 150, 150)">
      <rect x="75" y="75" width="150" height="150" fill="#424242" />
    </g>
    
    <!-- Ícone Mobile (vermelho) -->
    <g transform="translate(75, 75) rotate(45, 37.5, 37.5)">
      <rect x="12.5" y="12.5" width="50" height="50" fill="#D32F2F" />
      <rect x="22.5" y="17.5" width="30" height="40" fill="white" stroke="#D32F2F" stroke-width="2" />
    </g>
    
    <!-- Ícone Laptop (azul) -->
    <g transform="translate(150, 75) rotate(45, 37.5, 37.5)">
      <rect x="12.5" y="12.5" width="50" height="50" fill="#00ACC1" />
      <path d="M22.5,22.5 L52.5,22.5 L52.5,42.5 L22.5,42.5 Z M17.5,47.5 L57.5,47.5 L57.5,52.5 L17.5,52.5 Z" fill="white" />
    </g>
    
    <!-- Ícone Desktop (verde) -->
    <g transform="translate(75, 150) rotate(45, 37.5, 37.5)">
      <rect x="12.5" y="12.5" width="50" height="50" fill="#00897B" />
      <rect x="17.5" y="17.5" width="30" height="25" fill="white" />
      <rect x="27.5" y="42.5" width="10" height="15" fill="white" />
      <rect x="22.5" y="57.5" width="20" height="2.5" fill="white" />
    </g>
  </g>
  
  <!-- Texto SouDevCon -->
  <g transform="translate(180, 180)">
    <text x="0" y="0" font-family="Arial, sans-serif" font-weight="bold" font-size="0px">SouDevCon</text>
  </g>
</svg>

